<?xml version="1.0" encoding="UTF-8" standalone="no"?>
<!-- Created with Inkscape (http://www.inkscape.org/) -->

<svg
   xmlns:dc="http://purl.org/dc/elements/1.1/"
   xmlns:cc="http://creativecommons.org/ns#"
   xmlns:rdf="http://www.w3.org/1999/02/22-rdf-syntax-ns#"
   xmlns:svg="http://www.w3.org/2000/svg"
   xmlns="http://www.w3.org/2000/svg"
   xmlns:xlink="http://www.w3.org/1999/xlink"
   xmlns:sodipodi="http://sodipodi.sourceforge.net/DTD/sodipodi-0.dtd"
   xmlns:inkscape="http://www.inkscape.org/namespaces/inkscape"
   width="25"
   height="25"
   id="svg2"
   version="1.1"
   inkscape:version="0.47 r22583"
   sodipodi:docname="statusicon.svg"
   inkscape:export-filename="/Users/sam/Documents/workspace-android/kanjirecog/design/icon.36.png"
   inkscape:export-xdpi="45"
   inkscape:export-ydpi="45"
   style="display:inline">
  <defs
     id="defs4">
    <linearGradient
       id="linearGradient3637">
      <stop
         style="stop-color:#696969;stop-opacity:1;"
         offset="0"
         id="stop3639" />
      <stop
         style="stop-color:#0a0a0a;stop-opacity:1;"
         offset="1"
         id="stop3641" />
    </linearGradient>
    <inkscape:perspective
       sodipodi:type="inkscape:persp3d"
       inkscape:vp_x="0 : 526.18109 : 1"
       inkscape:vp_y="0 : 1000 : 0"
       inkscape:vp_z="744.09448 : 526.18109 : 1"
       inkscape:persp3d-origin="372.04724 : 350.78739 : 1"
       id="perspective10" />
    <filter
       id="filter2893"
       inkscape:label="Simple blur"
       inkscape:menu="ABCs"
       inkscape:menu-tooltip="Simple Gaussian blur, same as the blur slider in Fill and Stroke dialog"
       color-interpolation-filters="sRGB">
      <feGaussianBlur
         id="feGaussianBlur2895"
         stdDeviation="3" />
    </filter>
    <filter
       inkscape:collect="always"
       id="filter3713"
       color-interpolation-filters="sRGB">
      <feGaussianBlur
         inkscape:collect="always"
         stdDeviation="0.54"
         id="feGaussianBlur3715" />
    </filter>
    <clipPath
       clipPathUnits="userSpaceOnUse"
       id="clipPath3743">
      <text
         xml:space="preserve"
         style="font-size:49.44363785px;font-style:normal;font-variant:normal;font-weight:300;font-stretch:normal;text-align:start;line-height:100%;writing-mode:lr-tb;text-anchor:start;fill:#ffffff;fill-opacity:1;stroke:none;display:inline;font-family:Hiragino Kaku Gothic Pro;-inkscape-font-specification:Hiragino Kaku Gothic Pro Light"
         x="11.076075"
         y="1028.2509"
         id="text3745"
         sodipodi:linespacing="100%"
         transform="scale(0.99313161,1.0069159)"><tspan
           sodipodi:role="line"
           id="tspan3747"
           x="11.076075"
           y="1028.2509"
           style="font-size:49.44363785px;font-style:normal;font-variant:normal;font-weight:bold;font-stretch:normal;text-align:start;line-height:100%;writing-mode:lr-tb;text-anchor:start;fill:#ffffff;font-family:Hiragino Maru Gothic Pro;-inkscape-font-specification:Hiragino Maru Gothic Pro Bold">字</tspan></text>
    </clipPath>
    <clipPath
       clipPathUnits="userSpaceOnUse"
       id="clipPath3777">
      <g
         transform="matrix(0.99313161,0,0,1.0069159,0,-980.36218)"
         style="font-size:49.44363785px;font-style:normal;font-variant:normal;font-weight:300;font-stretch:normal;text-align:start;line-height:100%;writing-mode:lr-tb;text-anchor:start;fill:#000000;fill-opacity:1;stroke:none;display:inline;font-family:Hiragino Kaku Gothic Pro;-inkscape-font-specification:Hiragino Kaku Gothic Pro Light"
         id="g3779">
        <path
           d="m 37.528421,991.41534 0,-3.60938 c 0,-1.03832 -0.642769,-1.63164 -1.977746,-1.63164 -1.236089,0 -1.928302,0.59332 -1.928302,1.63164 l 0,3.60938 -14.882535,0 c -3.016058,0 -4.400483,1.28554 -4.400483,4.15327 l 0,5.19159 c 0,0.9889 0.889986,1.4833 2.027189,1.4833 1.137202,0 1.977745,-0.4944 1.977745,-1.4339 l 0,-4.49934 c 0,-1.1372 0.543881,-1.43386 1.582197,-1.43386 l 32.039477,0 c 0.988872,0 1.532753,0.29666 1.532753,1.43386 l 0,4.49934 c 0,0.9395 0.840543,1.4339 1.977745,1.4339 1.186647,0 2.02719,-0.4944 2.02719,-1.4833 l 0,-5.19159 c 0,-2.86773 -1.384425,-4.15327 -4.351041,-4.15327 l -15.624189,0 m 0.247218,24.91956 18.986357,0 c 0.939428,0 1.433865,-0.7911 1.433865,-1.8294 0,-0.9888 -0.54388,-1.7305 -1.483309,-1.7305 l -18.936913,0 0,-1.5822 c 4.351036,-1.78 8.553752,-4.1038 11.619255,-6.7243 0.741654,-0.6428 1.08776,-1.4833 1.08776,-2.225 0,-1.2855 -0.988875,-2.42274 -2.867731,-2.42274 l -25.512917,0 c -0.939428,0 -1.483309,0.69224 -1.483309,1.68104 0,1.0384 0.543881,1.78 1.483309,1.78 l 22.447411,0 c 0.296662,0 0.444993,0.099 0.444993,0.2967 0,0.1483 -0.09889,0.2966 -0.296662,0.445 -2.126074,1.5822 -4.894923,3.1149 -8.009869,4.3016 -0.247218,-0.049 -0.54388,-0.099 -0.840542,-0.099 -1.186646,0 -1.878858,0.5439 -1.878858,1.4338 l 0,3.115 -18.936913,0 c -0.939429,0 -1.384422,0.7417 -1.384422,1.78 0,0.9888 0.494437,1.7799 1.433865,1.7799 l 18.88747,0 0,9.691 c 0,1.6811 -0.543882,2.0272 -2.422738,2.0272 -1.285534,0 -3.065508,-0.099 -4.74659,-0.4945 -0.14833,-0.049 -0.296662,-0.049 -0.444992,-0.049 -0.791098,0 -1.433866,0.4944 -1.63164,1.4833 -0.04944,0.1978 -0.09889,0.445 -0.09889,0.6428 0,0.89 0.494438,1.5822 1.285535,1.7305 1.631638,0.3461 3.955493,0.5933 5.933236,0.5933 3.906044,0 5.933237,-1.3844 5.933237,-4.5982 l 0,-11.026"
           style="font-weight:bold;fill:#000000;font-family:Hiragino Maru Gothic Pro;-inkscape-font-specification:Hiragino Maru Gothic Pro Bold"
           id="path3781" />
      </g>
    </clipPath>
    <filter
       inkscape:collect="always"
       id="filter3823"
       color-interpolation-filters="sRGB">
      <feGaussianBlur
         inkscape:collect="always"
         stdDeviation="1.441048"
         id="feGaussianBlur3825" />
    </filter>
    <linearGradient
       inkscape:collect="always"
       xlink:href="#linearGradient3637"
       id="linearGradient3643"
       x1="2"
       y1="12.5"
       x2="23"
       y2="12.5"
       gradientUnits="userSpaceOnUse" />
  </defs>
  <sodipodi:namedview
     id="base"
     pagecolor="#ffffff"
     bordercolor="#666666"
     borderopacity="1.0"
     inkscape:pageopacity="0.0"
     inkscape:pageshadow="2"
     inkscape:zoom="24.260693"
     inkscape:cx="11.466219"
     inkscape:cy="11.826414"
     inkscape:document-units="px"
     inkscape:current-layer="layer4"
     showgrid="true"
     showguides="true"
     inkscape:guide-bbox="true"
     inkscape:window-width="1330"
     inkscape:window-height="951"
     inkscape:window-x="3"
     inkscape:window-y="0"
     inkscape:window-maximized="0">
    <sodipodi:guide
       orientation="0,1"
       position="-10,23"
       id="guide2820" />
    <inkscape:grid
       type="xygrid"
       id="grid2822"
       empspacing="5"
       visible="true"
       enabled="true"
       snapvisiblegridlinesonly="true" />
    <sodipodi:guide
       orientation="1,0"
       position="-40,66.876272"
       id="guide2824" />
    <sodipodi:guide
       orientation="0,1"
       position="-10,2"
       id="guide2826" />
    <sodipodi:guide
       orientation="1,0"
       position="2,-3"
       id="guide2828" />
    <sodipodi:guide
       orientation="1,0"
       position="23,-3"
       id="guide2830" />
  </sodipodi:namedview>
  <metadata
     id="metadata7">
    <rdf:RDF>
      <cc:Work
         rdf:about="">
        <dc:format>image/svg+xml</dc:format>
        <dc:type
           rdf:resource="http://purl.org/dc/dcmitype/StillImage" />
        <dc:title></dc:title>
      </cc:Work>
    </rdf:RDF>
  </metadata>
  <g
     inkscape:groupmode="layer"
     id="layer4"
     inkscape:label="Layer"
     style="display:inline"
     transform="translate(0,-47)">
    <path
       sodipodi:type="arc"
       style="opacity:0.56444445;fill:url(#linearGradient3643);fill-opacity:1;stroke:none"
       id="path2863"
       sodipodi:cx="12.5"
       sodipodi:cy="12.5"
       sodipodi:rx="10.5"
       sodipodi:ry="10.5"
       d="m 23,12.5 a 10.5,10.5 0 1 1 -21,0 10.5,10.5 0 1 1 21,0 z"
       transform="matrix(0,1,-1,0,25,47)" />
  </g>
  <g
     inkscape:groupmode="layer"
     id="layer1"
     inkscape:label="Character">
    <text
       transform="matrix(0.99313161,0,0,1.0069159,0,-47)"
       sodipodi:linespacing="100%"
       id="text2834"
       y="65.416031"
       x="4.1666813"
       style="display:inline;font-size:16.73793029999999860px;font-style:normal;font-variant:normal;font-weight:300;font-stretch:normal;text-align:start;line-height:100%;writing-mode:lr-tb;text-anchor:start;fill:#ffffff;fill-opacity:1;stroke:none;font-family:Hiragino Kaku Gothic Pro;-inkscape-font-specification:Hiragino Kaku Gothic Pro Light"
       xml:space="preserve"><tspan
         style="font-size:16.7379303px;font-style:normal;font-variant:normal;font-weight:bold;font-stretch:normal;text-align:start;line-height:100%;writing-mode:lr-tb;text-anchor:start;fill:#ffffff;font-family:Hiragino Maru Gothic Pro;-inkscape-font-specification:Hiragino Maru Gothic Pro Bold"
         y="65.416031"
         x="4.1666813"
         id="tspan2836"
         sodipodi:role="line">字</tspan></text>
  </g>
</svg>
